<?xml version="1.0" encoding="UTF-8"?><svg id="Layer_1" xmlns="http://www.w3.org/2000/svg" xmlns:xlink="http://www.w3.org/1999/xlink" viewBox="0 0 514.45 324.91"><defs><style>.cls-1,.cls-2{fill:none;}.cls-3{fill:#ff5b24;}.cls-4{fill:#fff;fill-rule:evenodd;}.cls-2{clip-path:url(#clippath);}</style><clipPath id="clippath"><rect class="cls-1" width="514.45" height="324.91"/></clipPath></defs><g class="cls-2"><path class="cls-3" d="m473.83,13.54c14.89,0,27.08,12.18,27.08,27.08v243.69c0,14.89-12.18,27.08-27.08,27.08H40.61c-14.89,0-27.08-12.18-27.08-27.08V40.61c0-14.89,12.18-27.08,27.08-27.08h433.22Z"/><path class="cls-4" d="m294.5,125.82c13.77,0,25.56-10.54,25.56-25.68h0c0-15.15-11.8-25.68-25.57-25.68s-25.56,10.53-25.56,25.68,11.79,25.68,25.56,25.68Zm33.43,41.49c-17.04,22.38-35.07,37.86-66.85,37.86-32.43,0-57.67-19.75-77.34-48.73-7.87-11.86-19.99-14.49-28.84-8.23-8.19,5.93-10.15,18.44-2.62,29.3,27.2,41.81,64.88,66.17,108.79,66.17,40.31,0,71.77-19.75,96.35-52.68,9.17-12.18,8.85-24.69,0-31.61-8.19-6.59-20.32-4.28-29.49,7.9Z"/></g></svg>